<svg width="20" height="20" viewBox="0 0 20 20" fill="none" xmlns="http://www.w3.org/2000/svg">
<g id="Group 76160">
<g id="Group 76152">
<g id="Group 76128">
<g id="Group 76127">
<g id="Group 76116">
<g id="Group 76115">
<path id="Ellipse 37 (Stroke)" fill-rule="evenodd" clip-rule="evenodd" d="M5.97018 3.07685C4.78122 8.80458 8.46061 14.4117 14.1883 15.6006L13.8888 17.0435C7.36425 15.6891 3.17297 9.30193 4.52734 2.77734L5.97018 3.07685Z" fill="#171A21"/>
</g>
</g>
</g>
</g>
<path id="Rectangle 17880" d="M5.84795 3.61141C5.83484 3.2047 6.15392 2.86438 6.56063 2.85127L8.40421 2.79186C8.81092 2.77876 9.15125 3.09784 9.16436 3.50455L9.22376 5.34813C9.23687 5.75484 8.91779 6.09517 8.51108 6.10827L6.6675 6.16768C6.26079 6.18078 5.92046 5.8617 5.90735 5.45499L5.84795 3.61141Z" fill="white"/>
<path id="Rectangle 17880 (Stroke)" fill-rule="evenodd" clip-rule="evenodd" d="M6.51003 1.38194L8.3536 1.32253C9.57374 1.28321 10.5947 2.24046 10.634 3.46059L10.6934 5.30416C10.7328 6.5243 9.77552 7.54528 8.55539 7.5846L6.71181 7.644C5.49168 7.68332 4.47069 6.72608 4.43138 5.50595L4.37197 3.66237C4.33265 2.44224 5.2899 1.42125 6.51003 1.38194ZM6.55749 2.85477C6.15078 2.86787 5.83169 3.2082 5.8448 3.61491L5.90421 5.45849C5.91731 5.8652 6.25764 6.18428 6.66435 6.17117L8.50793 6.11177C8.91464 6.09866 9.23372 5.75833 9.22061 5.35162L9.16121 3.50805C9.1481 3.10134 8.80777 2.78226 8.40106 2.79536L6.55749 2.85477Z" fill="#171A21"/>
<path id="Rectangle 17881" d="M12.9618 12.5985C13.0584 12.2033 13.4572 11.9611 13.8524 12.0578L15.7571 12.5233C16.1524 12.62 16.3945 13.0187 16.2979 13.414L15.8323 15.3187C15.7357 15.714 15.3369 15.9561 14.9417 15.8595L13.037 15.3939C12.6417 15.2973 12.3996 14.8985 12.4962 14.5032L12.9618 12.5985Z" fill="white"/>
<path id="Rectangle 17881 (Stroke)" fill-rule="evenodd" clip-rule="evenodd" d="M14.2019 10.6264L16.1066 11.092C17.2924 11.3819 18.0188 12.5782 17.7289 13.764L17.2633 15.6687C16.9734 16.8546 15.7771 17.5809 14.5913 17.291L12.6866 16.8255C11.5007 16.5356 10.7744 15.3393 11.0643 14.1534L11.5298 12.2487C11.8197 11.0629 13.016 10.3365 14.2019 10.6264ZM13.852 12.0579C13.4567 11.9612 13.0579 12.2034 12.9613 12.5986L12.4957 14.5033C12.3991 14.8986 12.6412 15.2974 13.0365 15.394L14.9412 15.8596C15.3365 15.9562 15.7352 15.7141 15.8319 15.3188L16.2974 13.4141C16.3941 13.0188 16.1519 12.6201 15.7567 12.5234L13.852 12.0579Z" fill="#171A21"/>
</g>
<g id="Group 76159">
<path id="Ellipse 887" d="M8.84063 13.8559C8.84063 15.8905 7.19125 17.5398 5.15664 17.5398C3.12203 17.5398 1.47266 15.8905 1.47266 13.8559C1.47266 11.8213 3.12203 10.1719 5.15664 10.1719C7.19125 10.1719 8.84063 11.8213 8.84063 13.8559Z" fill="white"/>
<path id="Ellipse 887 (Stroke)" fill-rule="evenodd" clip-rule="evenodd" d="M10.3152 13.8568C10.3152 16.7053 8.00604 19.0144 5.15758 19.0144C2.30913 19.0144 0 16.7053 0 13.8568C0 11.0083 2.30913 8.69922 5.15758 8.69922C8.00604 8.69922 10.3152 11.0083 10.3152 13.8568ZM5.15758 17.5408C7.19219 17.5408 8.84157 15.8914 8.84157 13.8568C8.84157 11.8222 7.19219 10.1728 5.15758 10.1728C3.12297 10.1728 1.47359 11.8222 1.47359 13.8568C1.47359 15.8914 3.12297 17.5408 5.15758 17.5408Z" fill="#171A21"/>
<path id="Vector 157 (Stroke)" fill-rule="evenodd" clip-rule="evenodd" d="M7.92956 12.642C8.19337 12.9518 8.15606 13.4168 7.84623 13.6806L4.81758 16.2594C4.55807 16.4804 4.18088 16.4945 3.90557 16.2936L2.51343 15.2776C2.18474 15.0377 2.11275 14.5767 2.35263 14.2481C2.59252 13.9194 3.05345 13.8474 3.38214 14.0873L4.30479 14.7606L6.89091 12.5586C7.20073 12.2948 7.66575 12.3321 7.92956 12.642Z" fill="#171A21"/>
</g>
</g>
</svg>
