<svg width="25" height="24" viewBox="0 0 25 24" fill="none" xmlns="http://www.w3.org/2000/svg">
<path fill-rule="evenodd" clip-rule="evenodd" d="M19.7506 12.9828L17.7111 12.4916C16.4511 12.182 15.1697 12.9508 14.8601 14.2215L14.3689 16.261C14.3475 16.3464 14.3369 16.4318 14.3262 16.5172C14.0699 16.3678 13.8136 16.2076 13.568 16.0261V15.9406C13.568 13.3566 11.7848 11.1782 9.37159 10.6016C9.21142 10.1532 9.0726 9.69401 8.96582 9.2135C9.20074 9.28824 9.44633 9.32027 9.71328 9.30959L11.6887 9.24553C12.9914 9.20282 14.0058 8.11366 13.9631 6.81094L13.9097 4.83551C13.867 3.5328 12.7779 2.51839 11.4752 2.55042L9.49972 2.61449C8.52802 2.64652 7.7165 3.25517 7.38548 4.10941C7.31073 4.46178 7.25734 4.81415 7.21463 5.15585C6.97971 6.98179 7.15056 8.77569 7.65243 10.4521C4.8014 10.655 2.54834 13.0362 2.54834 15.9406C2.54834 18.8451 5.01496 21.4505 8.05819 21.4505C10.4821 21.4505 12.543 19.8808 13.2691 17.7132C13.8884 18.0976 14.5504 18.4286 15.2445 18.6956C15.2445 18.6956 15.2552 18.7169 15.2658 18.7062C15.5008 18.8984 15.7891 19.0373 16.0987 19.112L18.1276 19.6032C19.3982 19.9129 20.6689 19.144 20.9786 17.8734L21.4804 15.8445C21.7901 14.5739 21.0106 13.2925 19.7506 12.9828ZM8.79497 5.00636C8.7843 4.85687 8.82701 4.71805 8.89108 4.58992C9.01921 4.36568 9.26481 4.2055 9.55311 4.19483L11.5179 4.13076C11.9557 4.10941 12.3187 4.4511 12.3294 4.8889L12.3935 6.85366C12.4148 7.29145 12.0731 7.6545 11.6353 7.66518L9.67057 7.72925C9.23277 7.75061 8.86972 7.40891 8.85904 6.97112L8.79497 5.14518V5.00636ZM11.9557 16.4105C11.945 16.5279 11.9236 16.6347 11.9023 16.7522C11.8809 16.8696 11.8489 16.9871 11.8062 17.1045C11.7848 17.1686 11.7635 17.2434 11.7314 17.3074C11.7207 17.3608 11.6994 17.4249 11.6674 17.4783C11.5713 17.7025 11.4538 17.9267 11.315 18.1296C11.2509 18.2257 11.1868 18.3218 11.1121 18.4073C11.0801 18.4393 11.0587 18.482 11.0267 18.514C10.9626 18.5888 10.8985 18.6529 10.8345 18.7169C10.5889 18.9732 10.3006 19.1868 10.0016 19.3576C9.91616 19.411 9.83074 19.4537 9.74532 19.4857C9.63854 19.5391 9.53176 19.5818 9.4143 19.6246C9.29684 19.6673 9.17938 19.71 9.06192 19.7313C9.00853 19.7527 8.95514 19.7634 8.91243 19.774C8.85904 19.7954 8.80565 19.7954 8.75226 19.8061C8.65616 19.8274 8.56006 19.8381 8.46396 19.8488C8.32514 19.8595 8.19701 19.8701 8.05819 19.8701C5.87988 19.8701 4.11801 18.1083 4.11801 15.9406C4.11801 13.773 5.87988 12.0111 8.05819 12.0111C8.12226 12.0111 8.18633 12.0111 8.2504 12.0218C8.42124 12.0218 8.59209 12.0432 8.75226 12.0752C8.91243 12.1072 9.08328 12.1499 9.23277 12.1927C9.35023 12.2247 9.46769 12.2674 9.58515 12.3208H9.59582C9.74532 12.3849 9.88413 12.4596 10.0229 12.5344C10.1938 12.6305 10.354 12.7479 10.5035 12.8654C10.5035 12.8654 10.5106 12.8689 10.5248 12.8761C10.7063 13.0255 10.8772 13.1964 11.0267 13.3779C11.0907 13.4527 11.1441 13.5167 11.1975 13.5915C11.2936 13.7089 11.3684 13.8264 11.4431 13.9545C11.4752 14.0079 11.5179 14.0613 11.5392 14.1254C11.5713 14.1788 11.6033 14.2428 11.6246 14.2962C11.6353 14.3176 11.646 14.3283 11.646 14.3496H11.6567C11.8702 14.8408 11.9877 15.3854 11.9877 15.9406C11.9877 16.1008 11.977 16.261 11.9557 16.4105ZM19.9535 15.4708L19.4516 17.4996C19.3555 17.9268 18.9284 18.183 18.5013 18.0762L17.6791 17.8734L16.4725 17.585C16.4084 17.5744 16.3443 17.5423 16.2909 17.521C16.2482 17.4996 16.2162 17.4783 16.1842 17.4462C16.1308 17.4142 16.0881 17.3715 16.0453 17.3181C16.0453 17.3181 16.0453 17.3074 16.0347 17.3074C15.9813 17.2327 15.9386 17.1579 15.9172 17.0832C15.8852 16.9978 15.8745 16.9123 15.8745 16.8269C15.8745 16.7628 15.8745 16.6988 15.8958 16.6347L16.387 14.5952C16.4938 14.1788 16.9209 13.9118 17.3374 14.0186L19.3769 14.5205C19.7933 14.6166 20.0603 15.0437 19.9535 15.4708Z" fill="#343842"/>
<path fill-rule="evenodd" clip-rule="evenodd" d="M10.8665 15.4297L10.7965 15.4897L7.83652 18.0097C7.57652 18.2297 7.19652 18.2497 6.91652 18.0497L5.52652 17.0297C5.19652 16.7897 5.12652 16.3297 5.36652 15.9997C5.60652 15.6697 6.06652 15.5997 6.39652 15.8397L7.31652 16.5097L9.82652 14.3697L9.90652 14.3097C10.2165 14.0497 10.6865 14.0897 10.9465 14.3997C11.2065 14.7097 11.1765 15.1697 10.8665 15.4297Z" fill="#343842"/>
</svg>
