<svg width="24" height="24" viewBox="0 0 24 24" fill="none" xmlns="http://www.w3.org/2000/svg">
<path fill-rule="evenodd" clip-rule="evenodd" d="M3 14.5007C3 13.5802 3.74619 12.834 4.66667 12.834H7.66945C8.05034 12.834 8.41974 12.9644 8.71615 13.2037L10.6845 14.7922L9.63783 16.0892L7.66945 14.5007H4.66667V19.5007H7.63815L14.3877 13.2755C14.6955 12.9916 15.0989 12.834 15.5176 12.834H19.1232V14.5007L15.5176 14.5007L8.7681 20.7258C8.46029 21.0097 8.05689 21.1673 7.63815 21.1673H4.66667C3.74619 21.1673 3 20.4211 3 19.5007V14.5007Z" fill="#171A21"/>
<path fill-rule="evenodd" clip-rule="evenodd" d="M14.0345 17.4941L16.5192 19.4993H19.1234V21.166H16.5192C16.1383 21.166 15.7689 21.0355 15.4725 20.7963L12.9878 18.7911L14.0345 17.4941Z" fill="#171A21"/>
<path d="M20.5 13.6667L18.8333 15.3333L18.8333 12L20.5 13.6667Z" fill="#171A21"/>
<path d="M20.5 20.3327L18.8333 21.9993L18.8333 18.666L20.5 20.3327Z" fill="#171A21"/>
<path d="M12.9998 5.33268C12.9998 6.25316 12.2536 6.99935 11.3332 6.99935C10.4127 6.99935 9.6665 6.25316 9.6665 5.33268C9.6665 4.41221 10.4127 3.66602 11.3332 3.66602C12.2536 3.66602 12.9998 4.41221 12.9998 5.33268Z" fill="white"/>
<path fill-rule="evenodd" clip-rule="evenodd" d="M14.6667 5.33333C14.6667 7.17428 13.1743 8.66667 11.3333 8.66667C9.49238 8.66667 8 7.17428 8 5.33333C8 3.49238 9.49238 2 11.3333 2C13.1743 2 14.6667 3.49238 14.6667 5.33333ZM11.3333 7C12.2538 7 13 6.25381 13 5.33333C13 4.41286 12.2538 3.66667 11.3333 3.66667C10.4129 3.66667 9.66667 4.41286 9.66667 5.33333C9.66667 6.25381 10.4129 7 11.3333 7Z" fill="#171A21"/>
<path fill-rule="evenodd" clip-rule="evenodd" d="M11.3332 8.66667C8.67279 8.66667 6.33317 11.1703 6.33317 14.5H4.6665C4.6665 10.4659 7.55023 7 11.3332 7C15.1161 7 17.9998 10.4659 17.9998 14.5H16.3332C16.3332 11.1703 13.9935 8.66667 11.3332 8.66667Z" fill="#171A21"/>
</svg>
