<svg width="20" height="20" viewBox="0 0 20 20" fill="none" xmlns="http://www.w3.org/2000/svg">
<g id="Group 75411">
<path id="Rectangle 17724 (Stroke)" fill-rule="evenodd" clip-rule="evenodd" d="M17.6016 4.40391L17.6016 15.6039C17.6016 16.9294 16.527 18.0039 15.2016 18.0039L2.40156 18.0039C1.07608 18.0039 0.0015634 16.9294 0.00156346 15.6039L0.00156393 4.40391C0.00156398 3.07842 1.07608 2.00391 2.40156 2.00391L15.2016 2.00391C16.527 2.00391 17.6016 3.07842 17.6016 4.40391ZM16.0016 4.40391C16.0016 3.96208 15.6434 3.60391 15.2016 3.60391L2.40156 3.60391C1.95974 3.60391 1.60156 3.96208 1.60156 4.40391L1.60156 15.6039C1.60156 16.0457 1.95974 16.4039 2.40156 16.4039L15.2016 16.4039C15.6434 16.4039 16.0016 16.0457 16.0016 15.6039L16.0016 4.40391Z" fill="#343842"/>
<path id="Rectangle 17726" d="M17.5984 11.6016C18.0403 11.6016 18.3984 11.9597 18.3984 12.4016L18.3984 17.2016C18.3984 17.6434 18.0403 18.0016 17.5984 18.0016L8.79844 18.0016C8.35661 18.0016 7.99844 17.6434 7.99844 17.2016L7.99844 12.4016C7.99844 11.9597 8.35661 11.6016 8.79844 11.6016L17.5984 11.6016Z" fill="white"/>
<path id="Rectangle 17725 (Stroke)" fill-rule="evenodd" clip-rule="evenodd" d="M17.5992 10.0039C18.4829 10.0039 19.1992 10.7203 19.1992 11.6039L19.1992 14.0039L17.5992 14.0039L17.5992 11.6039L8.79922 11.6039L8.79922 11.8039C8.79922 12.2457 8.44105 12.6039 7.99922 12.6039C7.55739 12.6039 7.19922 12.2457 7.19922 11.8039L7.19922 11.6039C7.19922 10.7203 7.91556 10.0039 8.79922 10.0039L17.5992 10.0039ZM18.3992 16.0039C18.841 16.0039 19.1992 16.3621 19.1992 16.8039L19.1992 18.0039C19.1992 18.8876 18.4829 19.6039 17.5992 19.6039L8.79922 19.6039C7.91556 19.6039 7.19922 18.8876 7.19922 18.0039L7.19922 14.8039L8.79922 14.8039L8.79922 18.0039L17.5992 18.0039L17.5992 16.8039C17.5992 16.3621 17.9574 16.0039 18.3992 16.0039Z" fill="#343842"/>
<path id="Polygon 16" d="M7.99844 13.2031L9.59844 15.6031H6.39844L7.99844 13.2031Z" fill="#343842"/>
<path id="Polygon 17" d="M18.4 15.6016L16.8 13.2016L20 13.2016L18.4 15.6016Z" fill="#343842"/>
<path id="Vector 41 (Stroke)" fill-rule="evenodd" clip-rule="evenodd" d="M4.8 0.402344C5.24183 0.402344 5.6 0.760516 5.6 1.20234L5.6 4.56234C5.6 5.00417 5.24183 5.36234 4.8 5.36234C4.35817 5.36234 4 5.00417 4 4.56234L4 1.20234C4 0.760516 4.35817 0.402344 4.8 0.402344Z" fill="#343842"/>
<path id="Vector 43 (Stroke)" fill-rule="evenodd" clip-rule="evenodd" d="M12.8 0.402344C13.2418 0.402344 13.6 0.760516 13.6 1.20234L13.6 4.56234C13.6 5.00417 13.2418 5.36234 12.8 5.36234C12.3582 5.36234 12 5.00417 12 4.56234L12 1.20234C12 0.760516 12.3582 0.402344 12.8 0.402344Z" fill="#343842"/>
</g>
</svg>
