<svg width="25" height="24" viewBox="0 0 25 24" fill="none" xmlns="http://www.w3.org/2000/svg">
<g clip-path="url(#clip0_649_5765)">
<path d="M20.4483 18C20.0039 18 19.6483 18.3556 19.6483 18.8V20H10.8483V17.6H11.6483L10.0483 15.2L8.44834 17.6H9.24834V18.4H4.44834C4.0039 18.4 3.64834 18.0334 3.64834 17.6V10.4H18.0483V12H10.8483C9.95945 12 9.24834 12.7111 9.24834 13.6V13.8C9.24834 14.2334 9.6039 14.6 10.0483 14.6C10.4928 14.6 10.8483 14.2334 10.8483 13.8V13.6H19.6483V15.2H18.8483L19.6483 16.4L20.4483 17.5889L22.0483 15.2H21.2483V13.6C21.2483 12.7111 20.5261 12 19.6483 12V6.40002C19.6483 5.06669 18.5706 4.00002 17.2483 4.00002H15.6483V3.20002C15.6483 2.75558 15.2928 2.40002 14.8483 2.40002C14.4039 2.40002 14.0483 2.75558 14.0483 3.20002V4.00002H7.64834V3.20002C7.64834 2.75558 7.29278 2.40002 6.84834 2.40002C6.4039 2.40002 6.04834 2.75558 6.04834 3.20002V4.00002H4.44834C3.12612 4.00002 2.04834 5.06669 2.04834 6.40002V17.6C2.04834 18.9222 3.12612 20 4.44834 20H9.24834C9.24834 20.8778 9.95945 21.6 10.8483 21.6H19.6483C20.5261 21.6 21.2483 20.8778 21.2483 20V18.8C21.2483 18.3556 20.8928 18 20.4483 18ZM3.64834 6.40002C3.64834 5.95558 4.0039 5.60002 4.44834 5.60002H6.04834V6.55558C6.04834 7.00002 6.4039 7.35558 6.84834 7.35558C7.29278 7.35558 7.64834 7.00002 7.64834 6.55558V5.60002H14.0483V6.55558C14.0483 7.00002 14.4039 7.35558 14.8483 7.35558C15.2928 7.35558 15.6483 7.00002 15.6483 6.55558V5.60002H17.2483C17.6928 5.60002 18.0483 5.95558 18.0483 6.40002V8.80002H3.64834V6.40002Z" fill="#343842"/>
</g>
<defs>
<clipPath id="clip0_649_5765">
<rect width="20" height="19.2" fill="white" transform="translate(2.04834 2.40002)"/>
</clipPath>
</defs>
</svg>
