<svg width="20" height="20" viewBox="0 0 20 20" fill="none" xmlns="http://www.w3.org/2000/svg">
<g id="Group 75975">
<path id="Ellipse 33 (Stroke)" fill-rule="evenodd" clip-rule="evenodd" d="M14.2178 4.17057C14.2178 6.47176 12.3292 8.33724 9.99953 8.33724C7.66984 8.33724 5.78125 6.47176 5.78125 4.17057C5.78125 1.86939 7.66984 0.00390625 9.99953 0.00390625C12.3292 0.00390625 14.2178 1.86939 14.2178 4.17057ZM9.99953 6.67057C11.3973 6.67057 12.5305 5.55128 12.5305 4.17057C12.5305 2.78986 11.3973 1.67057 9.99953 1.67057C8.60172 1.67057 7.46856 2.78986 7.46856 4.17057C7.46856 5.55128 8.60172 6.67057 9.99953 6.67057Z" fill="#343842"/>
<path id="Subtract (Stroke)" fill-rule="evenodd" clip-rule="evenodd" d="M15.5025 20.0052H4.05769C2.70733 20.0052 1.42523 18.8902 1.57435 17.3477C1.99912 12.9538 5.3306 9.17188 9.78008 9.17188C14.2296 9.17188 17.561 12.9538 17.9858 17.3477C18.1349 18.8902 16.8528 20.0052 15.5025 20.0052ZM4.05769 18.3385C3.59176 18.3385 3.20973 17.9643 3.25402 17.5061C3.61658 13.7557 6.40008 10.8385 9.78008 10.8385C13.1601 10.8385 15.9436 13.7557 16.3061 17.5061C16.3504 17.9643 15.9684 18.3385 15.5025 18.3385H4.05769Z" fill="#343842"/>
<path id="Star 2" d="M17.5946 0.00390625L18.4872 1.29038L20.0017 1.73136L19.0389 2.96743L19.0823 4.52645L17.5946 4.00391L16.1069 4.52645L16.1503 2.96743L15.1875 1.73136L16.702 1.29038L17.5946 0.00390625Z" fill="#343842"/>
<path id="Star 3" d="M2.40709 5.83594L3.29969 7.12241L4.81419 7.56339L3.85135 8.79946L3.89476 10.3585L2.40709 9.83594L0.919428 10.3585L0.962838 8.79946L0 7.56339L1.51449 7.12241L2.40709 5.83594Z" fill="#343842"/>
</g>
</svg>
