<svg width="25" height="24" viewBox="0 0 25 24" fill="none" xmlns="http://www.w3.org/2000/svg">
<path fill-rule="evenodd" clip-rule="evenodd" d="M16.2666 6.16667C16.2666 8.46785 14.3781 10.3333 12.0484 10.3333C9.71867 10.3333 7.83008 8.46785 7.83008 6.16667C7.83008 3.86548 9.71867 2 12.0484 2C14.3781 2 16.2666 3.86548 16.2666 6.16667ZM12.0484 8.66667C13.4462 8.66667 14.5793 7.54738 14.5793 6.16667C14.5793 4.78595 13.4462 3.66667 12.0484 3.66667C10.6505 3.66667 9.51739 4.78595 9.51739 6.16667C9.51739 7.54738 10.6505 8.66667 12.0484 8.66667Z" fill="#343842"/>
<path fill-rule="evenodd" clip-rule="evenodd" d="M17.5511 22.0001H6.10628C4.75592 22.0001 3.47382 20.8851 3.62294 19.3425C4.0477 14.9487 7.37918 11.1667 11.8287 11.1667C16.2782 11.1667 19.6096 14.9487 20.0344 19.3425C20.1835 20.8851 18.9014 22.0001 17.5511 22.0001ZM6.10628 20.3334C5.64034 20.3334 5.25832 19.9591 5.30261 19.501C5.66517 15.7506 8.44867 12.8334 11.8287 12.8334C15.2087 12.8334 17.9922 15.7506 18.3547 19.501C18.399 19.9591 18.017 20.3334 17.5511 20.3334H6.10628Z" fill="#343842"/>
<path d="M19.6412 2L20.5338 3.28647L22.0483 3.72746L21.0855 4.96353L21.1289 6.52254L19.6412 6L18.1536 6.52254L18.197 4.96353L17.2341 3.72746L18.7486 3.28647L19.6412 2Z" fill="#343842"/>
<path d="M4.45543 7.83337L5.34803 9.11985L6.86253 9.56083L5.89969 10.7969L5.9431 12.3559L4.45543 11.8334L2.96777 12.3559L3.01118 10.7969L2.04834 9.56083L3.56283 9.11985L4.45543 7.83337Z" fill="#343842"/>
</svg>
