<svg width="24" height="24" viewBox="0 0 24 24" fill="none" xmlns="http://www.w3.org/2000/svg">
<path fill-rule="evenodd" clip-rule="evenodd" d="M22 6.16602L22 17.8327C22 19.2134 20.8807 20.3327 19.5 20.3327L4.5 20.3327C3.11929 20.3327 2 19.2134 2 17.8327L2 6.16601C2 4.7853 3.11929 3.66601 4.5 3.66601L19.5 3.66602C20.8807 3.66602 22 4.7853 22 6.16602ZM20.3333 6.16602C20.3333 5.70578 19.9602 5.33268 19.5 5.33268L4.5 5.33268C4.03976 5.33268 3.66667 5.70578 3.66667 6.16601L3.66667 17.8327C3.66667 18.2929 4.03976 18.666 4.5 18.666L19.5 18.666C19.9602 18.666 20.3333 18.2929 20.3333 17.8327L20.3333 6.16602Z" fill="#343842"/>
<path d="M7 12.834L7 11.1673L5.33333 11.1673L5.33333 12.834L7 12.834Z" fill="#343842"/>
<path d="M9.5 12.834L9.5 11.1673L7.83333 11.1673L7.83333 12.834L9.5 12.834Z" fill="#343842"/>
<path d="M7 15.334L7 13.6673L5.33333 13.6673L5.33333 15.334L7 15.334Z" fill="#343842"/>
<path d="M7 17.834L7 16.1673L5.33333 16.1673L5.33333 17.834L7 17.834Z" fill="#343842"/>
<path d="M12 12.834L12 11.1673L10.3333 11.1673L10.3333 12.834L12 12.834Z" fill="#343842"/>
<path d="M9.5 15.334L9.5 13.6673L7.83333 13.6673L7.83333 15.334L9.5 15.334Z" fill="#343842"/>
<path d="M9.5 17.834L9.5 16.1673L7.83333 16.1673L7.83333 17.834L9.5 17.834Z" fill="#343842"/>
<path fill-rule="evenodd" clip-rule="evenodd" d="M6.16683 2C6.62707 2 7.00016 2.3731 7.00016 2.83333L7.00016 6.33333C7.00016 6.79357 6.62707 7.16667 6.16683 7.16667C5.70659 7.16667 5.3335 6.79357 5.3335 6.33333L5.3335 2.83333C5.3335 2.3731 5.70659 2 6.16683 2Z" fill="#343842"/>
<path fill-rule="evenodd" clip-rule="evenodd" d="M17.8333 2C18.2936 2 18.6667 2.3731 18.6667 2.83333L18.6667 6.33333C18.6667 6.79357 18.2936 7.16667 17.8333 7.16667C17.3731 7.16667 17 6.79357 17 6.33333L17 2.83333C17 2.3731 17.3731 2 17.8333 2Z" fill="#343842"/>
<path fill-rule="evenodd" clip-rule="evenodd" d="M2 8.66732C2 8.20708 2.3731 7.83398 2.83333 7.83398H21.1667C21.6269 7.83398 22 8.20708 22 8.66732C22 9.12756 21.6269 9.50065 21.1667 9.50065H2.83333C2.3731 9.50065 2 9.12756 2 8.66732Z" fill="#343842"/>
<path d="M20.3332 16.9993C20.3332 18.8403 18.8408 20.3327 16.9998 20.3327C15.1589 20.3327 13.6665 18.8403 13.6665 16.9993C13.6665 15.1584 15.1589 13.666 16.9998 13.666C18.8408 13.666 20.3332 15.1584 20.3332 16.9993Z" fill="white"/>
<path fill-rule="evenodd" clip-rule="evenodd" d="M22 17C22 19.7614 19.7614 22 17 22C14.2386 22 12 19.7614 12 17C12 14.2386 14.2386 12 17 12C19.7614 12 22 14.2386 22 17ZM17 20.3333C18.8409 20.3333 20.3333 18.8409 20.3333 17C20.3333 15.1591 18.8409 13.6667 17 13.6667C15.1591 13.6667 13.6667 15.1591 13.6667 17C13.6667 18.8409 15.1591 20.3333 17 20.3333Z" fill="#343842"/>
<path fill-rule="evenodd" clip-rule="evenodd" d="M16.1665 17.8327L16.1665 13.666L17.8332 13.666L17.8332 17.8327L16.1665 17.8327Z" fill="#343842"/>
<path d="M17 19.5L14.5 17L19.5 17L17 19.5Z" fill="#343842"/>
</svg>
