<svg width="25" height="24" viewBox="0 0 25 24" fill="none" xmlns="http://www.w3.org/2000/svg">
<g clip-path="url(#clip0_649_5746)">
<path d="M15.3784 8.67C15.1984 8.67 15.0284 8.68 14.8584 8.69C14.7284 8.7 14.6084 8.71 14.4884 8.73L14.3084 8.76C14.1784 8.78 14.0584 8.8 13.9384 8.83C13.7784 8.87 13.6284 8.91 13.4784 8.95C14.1384 8.22 14.5484 7.24 14.5484 6.17C14.5484 3.86 12.6884 2 10.3784 2C8.06836 2 6.21836 3.86 6.21836 6.17C6.21836 8.48 8.07836 10.33 10.3784 10.33C10.6084 10.33 10.8284 10.31 11.0384 10.28C10.8284 10.46 10.6284 10.65 10.4484 10.86C10.3484 10.96 10.2584 11.06 10.1784 11.17H10.1684C5.76836 11.17 2.47836 14.95 2.05836 19.34C1.90836 20.88 3.17836 22 4.50836 22H15.3784C15.7584 22 16.1384 21.97 16.5084 21.9C16.5184 21.9 16.5284 21.9 16.5384 21.89C16.7384 21.86 16.9284 21.81 17.1184 21.76C17.2684 21.72 17.4084 21.68 17.5484 21.63C17.6784 21.59 17.7984 21.55 17.9184 21.49C17.9484 21.48 17.9784 21.47 18.0084 21.46C18.1984 21.38 18.3784 21.29 18.5584 21.19C18.7084 21.11 18.8484 21.03 18.9884 20.93C19.0884 20.87 19.1884 20.81 19.2784 20.74C19.5684 20.53 19.8384 20.31 20.0784 20.06C20.2184 19.92 20.3484 19.79 20.4684 19.64C20.5584 19.53 20.6484 19.42 20.7384 19.3C20.8984 19.09 21.0384 18.87 21.1584 18.64C21.2284 18.53 21.2884 18.42 21.3384 18.31C21.4284 18.15 21.4984 17.99 21.5584 17.82C21.6184 17.69 21.6684 17.56 21.6984 17.43C21.7284 17.37 21.7484 17.3 21.7684 17.24C21.8184 17.07 21.8684 16.9 21.8984 16.72C21.9084 16.7 21.9084 16.68 21.9084 16.65C21.9384 16.54 21.9584 16.43 21.9684 16.32C21.9984 16.19 22.0084 16.07 22.0184 15.94C22.0384 15.74 22.0484 15.53 22.0484 15.33C22.0484 11.65 19.0684 8.67 15.3784 8.67ZM10.3784 8.67C8.99836 8.67 7.87836 7.55 7.87836 6.17C7.87836 4.79 8.99836 3.67 10.3784 3.67C11.7584 3.67 12.8784 4.79 12.8784 6.17C12.8784 7.55 11.7584 8.67 10.3784 8.67ZM4.50836 20.33C4.04836 20.33 3.67836 19.96 3.71836 19.5C3.73836 19.27 3.76836 19.04 3.81836 18.81C3.85836 18.54 3.91836 18.26 3.99836 18C4.04836 17.83 4.09836 17.67 4.14836 17.51C4.15836 17.49 4.16836 17.47 4.16836 17.45C4.23836 17.26 4.31836 17.06 4.40836 16.88C4.48836 16.68 4.58836 16.48 4.69836 16.29C4.79836 16.1 4.91836 15.92 5.03836 15.74C5.14836 15.56 5.27836 15.39 5.41836 15.23C5.53836 15.06 5.67836 14.91 5.82836 14.76C5.95836 14.61 6.10836 14.47 6.25836 14.34C6.26836 14.33 6.27836 14.33 6.27836 14.33C6.43836 14.19 6.59836 14.06 6.75836 13.95C6.98836 13.78 7.22836 13.63 7.47836 13.51C7.60836 13.44 7.74836 13.38 7.87836 13.32C7.87836 13.31 7.89836 13.31 7.90836 13.3C8.01836 13.24 8.13836 13.2 8.25836 13.16C8.26836 13.16 8.28836 13.15 8.29836 13.15C8.37836 13.12 8.44836 13.1 8.52836 13.08C8.59836 13.05 8.66836 13.03 8.74836 13.01C8.86836 12.98 8.98836 12.95 9.10836 12.93C9.12836 12.93 9.14836 12.92 9.16836 12.92C9.17836 12.89 9.18836 12.87 9.19836 12.84C9.18836 12.86 9.17836 12.89 9.17836 12.92H9.16836C9.14836 12.98 9.11836 13.04 9.10836 13.11C9.05836 13.22 9.01836 13.33 8.98836 13.45C8.97836 13.49 8.95836 13.54 8.95836 13.59C8.90836 13.75 8.86836 13.92 8.83836 14.08C8.79836 14.29 8.76836 14.49 8.74836 14.7C8.72836 14.91 8.71836 15.12 8.71836 15.33C8.71836 15.51 8.72836 15.69 8.73836 15.87C8.75836 16.08 8.78836 16.3 8.82836 16.51C8.83836 16.6 8.85836 16.69 8.87836 16.78C8.98836 17.26 9.14836 17.73 9.35836 18.17C9.42836 18.33 9.50836 18.49 9.59836 18.64C9.63836 18.71 9.67836 18.77 9.71836 18.84C9.81836 19 9.91836 19.16 10.0384 19.31C10.1584 19.48 10.2884 19.63 10.4184 19.78C10.4584 19.82 10.4984 19.87 10.5384 19.91C10.6784 20.05 10.8284 20.2 10.9784 20.33H4.50836ZM18.2684 19.41C17.6484 19.85 16.9184 20.16 16.1284 20.27H16.1184C16.0284 20.31 15.9284 20.33 15.8184 20.33H15.3784C12.6184 20.33 10.3784 18.09 10.3784 15.33C10.3784 14.45 10.6084 13.62 11.0084 12.9C11.3184 12.34 11.7284 11.85 12.2184 11.46C13.0784 10.75 14.1784 10.33 15.3784 10.33C18.1484 10.33 20.3784 12.57 20.3784 15.33C20.3784 17.02 19.5484 18.51 18.2684 19.41Z" fill="#343842"/>
<path fill-rule="evenodd" clip-rule="evenodd" d="M18.4983 14.22L17.1783 15.69L15.9883 17.02L15.4983 17.56C15.1983 17.89 14.6883 17.93 14.3483 17.64L12.3483 15.97C11.9983 15.68 11.9483 15.15 12.2383 14.8C12.5383 14.45 13.0583 14.4 13.4183 14.69L14.7983 15.85L15.1183 15.5L16.2483 14.23L17.2583 13.11C17.5683 12.77 18.0983 12.74 18.4383 13.05C18.7783 13.35 18.8083 13.88 18.4983 14.22Z" fill="#343842"/>
</g>
<defs>
<clipPath id="clip0_649_5746">
<rect width="20" height="20" fill="white" transform="translate(2.04834 2)"/>
</clipPath>
</defs>
</svg>
