<svg width="20" height="20" viewBox="0 0 20 20" fill="none" xmlns="http://www.w3.org/2000/svg">
<g id="Group 75411">
<path id="Rectangle 17724 (Stroke)" fill-rule="evenodd" clip-rule="evenodd" d="M17.6016 4.41172L17.6016 15.6117C17.6016 16.9372 16.527 18.0117 15.2016 18.0117L2.40156 18.0117C1.07608 18.0117 0.0015634 16.9372 0.00156346 15.6117L0.00156393 4.41172C0.00156398 3.08623 1.07608 2.01172 2.40156 2.01172L15.2016 2.01172C16.527 2.01172 17.6016 3.08623 17.6016 4.41172ZM16.0016 4.41172C16.0016 3.96989 15.6434 3.61172 15.2016 3.61172L2.40156 3.61172C1.95974 3.61172 1.60156 3.96989 1.60156 4.41172L1.60156 15.6117C1.60156 16.0535 1.95974 16.4117 2.40156 16.4117L15.2016 16.4117C15.6434 16.4117 16.0016 16.0535 16.0016 15.6117L16.0016 4.41172Z" fill="#343842"/>
<path id="Rectangle 17726" d="M17.5984 11.6094C18.0403 11.6094 18.3984 11.9675 18.3984 12.4094L18.3984 17.2094C18.3984 17.6512 18.0403 18.0094 17.5984 18.0094L8.79844 18.0094C8.35661 18.0094 7.99844 17.6512 7.99844 17.2094L7.99844 12.4094C7.99844 11.9675 8.35661 11.6094 8.79844 11.6094L17.5984 11.6094Z" fill="white"/>
<path id="Rectangle 17725 (Stroke)" fill-rule="evenodd" clip-rule="evenodd" d="M17.5992 10.0117C18.4829 10.0117 19.1992 10.7281 19.1992 11.6117L19.1992 14.0117L17.5992 14.0117L17.5992 11.6117L8.79922 11.6117L8.79922 11.8117C8.79922 12.2535 8.44105 12.6117 7.99922 12.6117C7.55739 12.6117 7.19922 12.2535 7.19922 11.8117L7.19922 11.6117C7.19922 10.7281 7.91556 10.0117 8.79922 10.0117L17.5992 10.0117ZM18.3992 16.0117C18.841 16.0117 19.1992 16.3699 19.1992 16.8117L19.1992 18.0117C19.1992 18.8954 18.4829 19.6117 17.5992 19.6117L8.79922 19.6117C7.91556 19.6117 7.19922 18.8954 7.19922 18.0117L7.19922 14.8117L8.79922 14.8117L8.79922 18.0117L17.5992 18.0117L17.5992 16.8117C17.5992 16.3699 17.9574 16.0117 18.3992 16.0117Z" fill="#343842"/>
<path id="Polygon 16" d="M7.99844 13.2109L9.59844 15.6109H6.39844L7.99844 13.2109Z" fill="#343842"/>
<path id="Polygon 17" d="M18.4 15.6094L16.8 13.2094L20 13.2094L18.4 15.6094Z" fill="#343842"/>
<path id="Vector 41 (Stroke)" fill-rule="evenodd" clip-rule="evenodd" d="M4.8 0.410156C5.24183 0.410156 5.6 0.768328 5.6 1.21016L5.6 4.57016C5.6 5.01198 5.24183 5.37016 4.8 5.37016C4.35817 5.37016 4 5.01198 4 4.57016L4 1.21016C4 0.768328 4.35817 0.410156 4.8 0.410156Z" fill="#343842"/>
<path id="Vector 43 (Stroke)" fill-rule="evenodd" clip-rule="evenodd" d="M12.8 0.410156C13.2418 0.410156 13.6 0.768328 13.6 1.21016L13.6 4.57016C13.6 5.01198 13.2418 5.37016 12.8 5.37016C12.3582 5.37016 12 5.01198 12 4.57016L12 1.21016C12 0.768328 12.3582 0.410156 12.8 0.410156Z" fill="#343842"/>
</g>
</svg>
