<svg width="20" height="20" viewBox="0 0 20 20" fill="none" xmlns="http://www.w3.org/2000/svg">
<g id="Group 75989">
<path id="Rectangle 17820" d="M1.67188 6.59849C1.67188 6.13635 2.04616 5.76172 2.50787 5.76172H5.01585C5.47755 5.76172 5.85184 6.13635 5.85184 6.59849V15.803C5.85184 16.2651 5.47755 16.6398 5.01585 16.6398H2.50787C2.04616 16.6398 1.67188 16.2651 1.67188 15.803V6.59849Z" fill="white"/>
<path id="Rectangle 17820 (Stroke)" fill-rule="evenodd" clip-rule="evenodd" d="M2.50798 4.08594H5.01595C6.40107 4.08594 7.52393 5.20984 7.52393 6.59625V15.8007C7.52393 17.1872 6.40107 18.3111 5.01595 18.3111H2.50798C1.12286 18.3111 0 17.1871 0 15.8007V6.59625C0 5.20984 1.12286 4.08594 2.50798 4.08594ZM2.50798 5.75948C2.04627 5.75948 1.67199 6.13412 1.67199 6.59625V15.8007C1.67199 16.2629 2.04627 16.6375 2.50798 16.6375H5.01595C5.47766 16.6375 5.85195 16.2629 5.85195 15.8007V6.59625C5.85195 6.13412 5.47766 5.75948 5.01595 5.75948H2.50798Z" fill="#343842"/>
<path id="Vector 91 (Stroke)" fill-rule="evenodd" clip-rule="evenodd" d="M5.85156 6.45895L6.58356 2.06296C6.77761 0.897566 7.97287 -0.362447 9.58193 0.103156C10.6542 0.413418 11.7213 1.14501 12.2269 2.56974C12.4912 3.31442 12.5723 4.17095 12.4919 5.14019L14.5055 4.94822C17.8898 4.62557 20.6077 7.69496 19.8812 11.0191L18.6372 16.7114C18.0479 19.4079 15.0571 20.8043 12.6142 19.5235L5.85156 15.9778V6.45895ZM10.4495 7.01602C10.6224 6.37319 10.7346 5.80462 10.795 5.30196C11.0795 2.93244 10.2117 2.02745 9.11759 1.71086C8.69921 1.5898 8.30439 1.90811 8.23279 2.33809L7.52355 6.59745V14.9652L13.39 18.041C14.8558 18.8095 16.6502 17.9717 17.0038 16.3538L18.2478 10.6615C18.7322 8.44538 16.9202 6.39912 14.664 6.61422L10.4495 7.01602Z" fill="#343842"/>
</g>
</svg>
