<svg width="22" height="20" viewBox="0 0 22 20" fill="none" xmlns="http://www.w3.org/2000/svg">
<g id="Group 75986">
<g id="Group 75979">
<g id="Group 75982">
<path id="Ellipse 33" d="M9.85255 3.79346C9.85255 5.04932 8.83447 6.06739 7.57862 6.06739C6.32276 6.06739 5.30469 5.04932 5.30469 3.79346C5.30469 2.5376 6.32276 1.51953 7.57862 1.51953C8.83447 1.51953 9.85255 2.5376 9.85255 3.79346Z" fill="white"/>
<path id="Ellipse 33 (Stroke)" fill-rule="evenodd" clip-rule="evenodd" d="M11.3688 3.79379C11.3688 5.88688 9.67204 7.58367 7.57894 7.58367C5.48585 7.58367 3.78906 5.88688 3.78906 3.79379C3.78906 1.70069 5.48585 0.00390625 7.57894 0.00390625C9.67204 0.00390625 11.3688 1.70069 11.3688 3.79379ZM7.57894 6.06772C8.8348 6.06772 9.85287 5.04964 9.85287 3.79379C9.85287 2.53793 8.8348 1.51986 7.57894 1.51986C6.32309 1.51986 5.30502 2.53793 5.30502 3.79379C5.30502 5.04964 6.32309 6.06772 7.57894 6.06772Z" fill="#343842"/>
<path id="Subtract" fill-rule="evenodd" clip-rule="evenodd" d="M1.51877 15.924C1.47898 16.3407 1.8222 16.6812 2.24082 16.6812H12.5233C12.9419 16.6812 13.2851 16.3407 13.2453 15.924C12.9196 12.5128 10.4188 9.85938 7.38206 9.85938C4.34532 9.85938 1.84451 12.5128 1.51877 15.924Z" fill="white"/>
<path id="Subtract (Stroke)" fill-rule="evenodd" clip-rule="evenodd" d="M12.5243 18.1935H2.24179C1.02857 18.1935 -0.123328 17.1794 0.0106494 15.7763C0.392276 11.7798 3.38542 8.33984 7.38302 8.33984C11.3806 8.33984 14.3738 11.7798 14.7554 15.7763C14.8894 17.1794 13.7375 18.1935 12.5243 18.1935ZM2.24179 16.6776C1.82317 16.6776 1.47995 16.3371 1.51974 15.9204C1.84548 12.5092 4.34629 9.8558 7.38302 9.8558C10.4198 9.8558 12.9206 12.5092 13.2463 15.9204C13.2861 16.3371 12.9429 16.6776 12.5243 16.6776H2.24179Z" fill="#343842"/>
</g>
</g>
<g id="Group 75987">
<circle id="Ellipse 868" cx="14.2472" cy="12.5089" r="4.92685" fill="white"/>
<g id="Group 75985">
<path id="Ellipse 53 (Stroke)" fill-rule="evenodd" clip-rule="evenodd" d="M11.0254 16.9924C10.0356 16.2325 9.33385 15.1582 9.0357 13.9464C8.73755 12.7346 8.86071 11.4574 9.38492 10.3249C9.90913 9.19239 10.8032 8.27202 11.92 7.71517C12.2946 7.52838 12.7498 7.68065 12.9365 8.05529C13.1233 8.42992 12.9711 8.88505 12.5964 9.07184C11.7877 9.47509 11.1403 10.1416 10.7606 10.9617C10.381 11.7818 10.2918 12.7067 10.5078 13.5842C10.7237 14.4618 11.2318 15.2397 11.9486 15.79C12.6654 16.3404 13.5482 16.6304 14.4517 16.6124C15.3552 16.5943 16.2257 16.2693 16.92 15.6908C17.6142 15.1122 18.0909 14.3147 18.2716 13.4292C18.4523 12.5438 18.3263 11.6232 17.9142 10.8189C17.5022 10.0146 16.8287 9.37444 16.0045 9.00379C15.6227 8.8321 15.4524 8.38342 15.6241 8.00163C15.7957 7.61984 16.2444 7.44952 16.6262 7.62121C17.7644 8.13304 18.6944 9.01699 19.2634 10.1277C19.8324 11.2383 20.0065 12.5096 19.7569 13.7323C19.5074 14.9551 18.8491 16.0565 17.8904 16.8554C16.9317 17.6543 15.7296 18.1031 14.4819 18.128C13.2343 18.1529 12.0152 17.7524 11.0254 16.9924Z" fill="#343842"/>
<path id="Polygon 9" d="M14.9592 7.57768L17.8759 7.07358L15.981 10.3557L14.9592 7.57768Z" fill="#343842"/>
</g>
</g>
</g>
</svg>
