<svg width="25" height="24" viewBox="0 0 25 24" fill="none" xmlns="http://www.w3.org/2000/svg">
<path fill-rule="evenodd" clip-rule="evenodd" d="M9.67829 2.76501C7.57829 2.76501 5.86829 4.49501 5.86829 6.61501C5.86829 8.73501 7.57829 10.465 9.67829 10.465C11.7783 10.465 13.4983 8.73501 13.4983 6.61501C13.4983 4.49501 11.7883 2.76501 9.67829 2.76501ZM9.67829 8.92501C8.40829 8.92501 7.39828 7.89501 7.39828 6.61501C7.39828 5.33501 8.40829 4.30501 9.67829 4.30501C10.9483 4.30501 11.9683 5.34501 11.9683 6.61501C11.9683 7.88501 10.9483 8.92501 9.67829 8.92501Z" fill="#343842"/>
<path d="M21.4383 13.0451C20.9883 12.1651 20.3183 11.4151 19.4983 10.8951L20.0483 9.94507L17.1083 10.4551L17.1383 10.5251L18.1383 13.2751L18.7383 12.2251C19.3083 12.6051 19.7683 13.1251 20.0783 13.7451C20.4883 14.5651 20.6183 15.4951 20.4383 16.3951C20.2583 17.2951 19.7783 18.1051 19.0783 18.6851C18.4383 19.2251 17.6483 19.5451 16.8283 19.6151C16.7483 19.6151 16.6783 19.6251 16.5983 19.6251C16.1283 19.6251 15.6683 19.5651 15.2383 19.4051C14.8183 19.2651 14.4283 19.0551 14.0783 18.7851C13.3583 18.2351 12.8383 17.4451 12.6283 16.5551C12.4183 15.6951 12.4883 14.7951 12.8483 13.9851C12.8483 13.9551 12.8683 13.9251 12.8783 13.8951C13.0883 13.4451 13.3683 13.0551 13.7083 12.7151C14.0083 12.4151 14.3483 12.1651 14.7283 11.9751C15.1083 11.7851 15.2583 11.3251 15.0683 10.9351C15.0283 10.8451 14.9583 10.7651 14.8883 10.7051C14.6683 10.5051 14.3283 10.4551 14.0483 10.5951C13.4083 10.9151 12.8383 11.3651 12.3783 11.8951C11.4983 11.4651 10.5183 11.2351 9.47833 11.2351C5.45833 11.2351 2.43833 14.7251 2.05833 18.7751C1.92833 20.2051 3.08833 21.2351 4.30833 21.2351H14.6483C14.9383 21.2351 15.2283 21.1751 15.4983 21.0651C15.8683 21.1351 16.2483 21.1751 16.6283 21.1651C17.8883 21.1351 19.0883 20.6851 20.0583 19.8751C21.0283 19.0651 21.6883 17.9451 21.9383 16.7051C22.1883 15.4651 22.0083 14.1751 21.4383 13.0451ZM4.30833 19.6951C3.87833 19.6951 3.53833 19.3451 3.57833 18.9251C3.90833 15.4651 6.42833 12.7651 9.47833 12.7651C9.65833 12.7651 9.83833 12.7751 10.0083 12.7951C10.1883 12.8151 10.3583 12.8351 10.5283 12.8751C10.6483 12.8951 10.7683 12.9251 10.8783 12.9651C11.0983 13.0251 11.3083 13.0951 11.5183 13.1851C11.5083 13.2051 11.4983 13.2251 11.4883 13.2451C10.9683 14.3951 10.8483 15.6851 11.1383 16.9151C11.3983 17.9851 11.9683 18.9551 12.7683 19.6951H4.30833Z" fill="#343842"/>
</svg>
