<svg width="25" height="24" viewBox="0 0 25 24" fill="none" xmlns="http://www.w3.org/2000/svg">
<path fill-rule="evenodd" clip-rule="evenodd" d="M16.5587 6.94078L14.5387 7.14078C14.6187 6.17078 14.5387 5.31078 14.2787 4.57078C13.7687 3.14078 12.6987 2.41078 11.6287 2.10078C10.0187 1.63078 8.82871 2.89078 8.62871 4.06078L8.2487 6.37078C7.8987 6.19078 7.4987 6.08078 7.0687 6.08078H4.55871C3.16871 6.08078 2.04871 7.21078 2.04871 8.59078V17.8008C2.04871 19.1808 3.16871 20.3108 4.55871 20.3108H7.0687C8.1087 20.3108 9.00871 19.6608 9.37871 18.7508L14.6587 21.5208C17.1087 22.8008 20.0987 21.4008 20.6887 18.7108L21.9287 13.0108C22.6587 9.69078 19.9387 6.62078 16.5587 6.94078ZM7.8987 17.8008C7.8987 18.2608 7.5287 18.6308 7.0687 18.6308H4.55871C4.09871 18.6308 3.7187 18.2608 3.7187 17.8008V8.59078C3.7187 8.13078 4.09871 7.76078 4.55871 7.76078H7.0687C7.5287 7.76078 7.8987 8.13078 7.8987 8.59078V17.8008ZM20.2987 12.6608L19.0487 18.3508C18.6987 19.9708 16.9087 20.8108 15.4387 20.0408L9.5687 16.9608V8.59078L10.2787 4.33078C10.3487 3.90078 10.7487 3.59078 11.1687 3.71078C12.2587 4.02078 13.1287 4.93078 12.8487 7.30078C12.7887 7.80078 12.6687 8.37078 12.4987 9.01078L16.7087 8.61078C18.9687 8.39078 20.7787 10.4408 20.2987 12.6608Z" fill="#343842"/>
</svg>
