<svg width="20" height="20" viewBox="0 0 20 20" fill="none" xmlns="http://www.w3.org/2000/svg">
<g id="Group 75983">
<g id="Group 75979">
<g id="Group 75982">
<path id="Ellipse 33" d="M10.8359 4.16797C10.8359 5.54868 9.71665 6.66797 8.33594 6.66797C6.95523 6.66797 5.83594 5.54868 5.83594 4.16797C5.83594 2.78726 6.95523 1.66797 8.33594 1.66797C9.71665 1.66797 10.8359 2.78726 10.8359 4.16797Z" fill="white"/>
<path id="Ellipse 33 (Stroke)" fill-rule="evenodd" clip-rule="evenodd" d="M12.5013 4.16667C12.5013 6.46785 10.6358 8.33333 8.33464 8.33333C6.03345 8.33333 4.16797 6.46785 4.16797 4.16667C4.16797 1.86548 6.03345 0 8.33464 0C10.6358 0 12.5013 1.86548 12.5013 4.16667ZM8.33464 6.66667C9.71535 6.66667 10.8346 5.54738 10.8346 4.16667C10.8346 2.78595 9.71535 1.66667 8.33464 1.66667C6.95392 1.66667 5.83464 2.78595 5.83464 4.16667C5.83464 5.54738 6.95392 6.66667 8.33464 6.66667Z" fill="#343842"/>
<path id="Subtract" fill-rule="evenodd" clip-rule="evenodd" d="M1.67143 17.4996C1.62768 17.9577 2.00502 18.332 2.46526 18.332H13.77C14.2302 18.332 14.6076 17.9577 14.5638 17.4996C14.2057 13.7492 11.4563 10.832 8.11763 10.832C4.77899 10.832 2.02955 13.7492 1.67143 17.4996Z" fill="white"/>
<path id="Subtract (Stroke)" fill-rule="evenodd" clip-rule="evenodd" d="M13.7694 20.0013H2.46466C1.13083 20.0013 -0.135589 18.8863 0.0117082 17.3438C0.431275 12.9499 3.72199 9.16797 8.11703 9.16797C12.5121 9.16797 15.8028 12.9499 16.2224 17.3438C16.3697 18.8863 15.1032 20.0013 13.7694 20.0013ZM2.46466 18.3346C2.00443 18.3346 1.62708 17.9604 1.67083 17.5022C2.02895 13.7518 4.77839 10.8346 8.11703 10.8346C11.4557 10.8346 14.2051 13.7518 14.5632 17.5022C14.607 17.9604 14.2296 18.3346 13.7694 18.3346H2.46466Z" fill="#343842"/>
</g>
</g>
<g id="Group 75981">
<g id="Group 75313">
<g id="Group 75312">
<path id="Ellipse 32" d="M20.0013 13.3346C20.0013 17.0165 17.0165 20.0013 13.3346 20.0013C9.65274 20.0013 6.66797 17.0165 6.66797 13.3346C6.66797 9.65274 9.65274 6.66797 13.3346 6.66797C17.0165 6.66797 20.0013 9.65274 20.0013 13.3346Z" fill="white"/>
<path id="Ellipse 32 (Stroke)" fill-rule="evenodd" clip-rule="evenodd" d="M13.3346 18.3346C16.0961 18.3346 18.3346 16.0961 18.3346 13.3346C18.3346 10.5732 16.0961 8.33464 13.3346 8.33464C10.5732 8.33464 8.33464 10.5732 8.33464 13.3346C8.33464 16.0961 10.5732 18.3346 13.3346 18.3346ZM13.3346 20.0013C17.0165 20.0013 20.0013 17.0165 20.0013 13.3346C20.0013 9.65274 17.0165 6.66797 13.3346 6.66797C9.65274 6.66797 6.66797 9.65274 6.66797 13.3346C6.66797 17.0165 9.65274 20.0013 13.3346 20.0013Z" fill="#343842"/>
</g>
</g>
<path id="Vector 89 (Stroke)" fill-rule="evenodd" clip-rule="evenodd" d="M16.3908 11.0499C16.7329 11.3577 16.7606 11.8847 16.4528 12.2267L13.4528 15.5601C13.1531 15.893 12.6439 15.9295 12.2999 15.6428L10.2999 13.9761C9.9463 13.6815 9.89853 13.156 10.1932 12.8025C10.4878 12.4489 11.0133 12.4011 11.3668 12.6958L12.7506 13.8489L15.2139 11.1118C15.5218 10.7697 16.0487 10.742 16.3908 11.0499Z" fill="#343842"/>
</g>
</g>
</svg>
