<svg width="21" height="20" viewBox="0 0 21 20" fill="none" xmlns="http://www.w3.org/2000/svg">
<g id="Group 75989">
<path id="Rectangle 17820" d="M2 5.00391C2 4.45162 2.44772 4.00391 3 4.00391H6C6.55228 4.00391 7 4.45162 7 5.00391V16.0039C7 16.5562 6.55228 17.0039 6 17.0039H3C2.44772 17.0039 2 16.5562 2 16.0039V5.00391Z" fill="white"/>
<g id="Group 75991">
<path id="Rectangle 17820 (Stroke)" fill-rule="evenodd" clip-rule="evenodd" d="M2.56119 1.30859H5.12238C6.53689 1.30859 7.68357 2.45528 7.68357 3.86978V13.2608C7.68357 14.6753 6.53689 15.822 5.12238 15.822H2.56119C1.14668 15.822 0 14.6753 0 13.2608V3.86978C0 2.45528 1.14668 1.30859 2.56119 1.30859ZM2.56119 3.01605C2.08969 3.01605 1.70746 3.39828 1.70746 3.86978V13.2608C1.70746 13.7323 2.08969 14.1145 2.56119 14.1145H5.12238C5.59388 14.1145 5.97611 13.7323 5.97611 13.2608V3.86978C5.97611 3.39828 5.59388 3.01605 5.12238 3.01605H2.56119Z" fill="#343842"/>
<path id="Vector 91 (Stroke)" fill-rule="evenodd" clip-rule="evenodd" d="M6.40845 13.5614L7.16495 17.8984C7.37101 19.0797 8.6029 20.3724 10.2532 19.8689C11.3252 19.5418 12.379 18.7904 12.8665 17.3613C13.115 16.6328 13.1893 15.8016 13.1104 14.8676L14.9249 15.0267C18.3833 15.3298 21.1352 12.1773 20.3678 8.79151L19.1395 3.37292C18.517 0.626343 15.4521 -0.775263 12.9673 0.550291L6.33701 4.08735L6.40845 13.5614ZM11.0165 12.9701C11.1987 13.627 11.3161 14.2059 11.3784 14.7158C11.6589 17.0131 10.8213 17.9104 9.75488 18.2357C9.32949 18.3655 8.92344 18.0431 8.84702 17.605L8.1148 13.4072L8.05221 5.10758L13.771 2.05679C15.2619 1.26146 17.1008 2.10242 17.4743 3.75037L18.7025 9.16896C19.2142 11.4262 17.3796 13.5278 15.0739 13.3257L11.0165 12.9701Z" fill="#343842"/>
</g>
</g>
</svg>
