<svg width="25" height="24" viewBox="0 0 25 24" fill="none" xmlns="http://www.w3.org/2000/svg">
<path fill-rule="evenodd" clip-rule="evenodd" d="M22.1682 10.7817L20.9382 5.36171C20.3182 2.61171 17.2582 1.21171 14.7682 2.54171L9.44821 5.37171C9.21821 4.19171 8.16821 3.29171 6.92821 3.29171H4.36821C2.94821 3.29171 1.79822 4.44171 1.79822 5.86171V15.2517C1.79822 16.6617 2.94821 17.8117 4.36821 17.8117H6.92821C7.52821 17.8117 8.07821 17.6017 8.50821 17.2617L8.96822 19.8817C9.16822 21.0717 10.4082 22.3617 12.0582 21.8517C13.1282 21.5317 14.1782 20.7817 14.6682 19.3517C14.9182 18.6217 14.9882 17.7917 14.9082 16.8517L16.7282 17.0117C20.1882 17.3217 22.9382 14.1617 22.1682 10.7817ZM7.77821 15.2517C7.77821 15.7217 7.39821 16.1017 6.92821 16.1017H4.36821C3.88821 16.1017 3.50821 15.7217 3.50821 15.2517V5.86171C3.50821 5.38171 3.88821 5.00171 4.36821 5.00171H6.92821C7.39821 5.00171 7.77821 5.38171 7.77821 5.86171V15.2517ZM16.8782 15.3117L12.8182 14.9617C12.9982 15.6117 13.1182 16.1917 13.1782 16.7017C13.4582 19.0017 12.6182 19.9017 11.5582 20.2217C11.1282 20.3517 10.7282 20.0317 10.6482 19.5917L9.91821 15.3917L9.85822 7.09171L15.5682 4.04171C17.0582 3.25171 18.8982 4.09171 19.2782 5.74171L20.5082 11.1517C21.0182 13.4117 19.1782 15.5117 16.8782 15.3117Z" fill="#343842"/>
</svg>
