<svg width="25" height="24" viewBox="0 0 25 24" fill="none" xmlns="http://www.w3.org/2000/svg">
<path fill-rule="evenodd" clip-rule="evenodd" d="M20.9283 4.41L14.2583 2.09C13.9083 1.97 13.5183 1.97 13.1683 2.09L6.49834 4.41C5.82834 4.64 5.37834 5.27 5.37834 5.98V11.17H2.87834C2.41834 11.17 2.04834 11.54 2.04834 12C2.04834 12.46 2.41834 12.83 2.87834 12.83H5.52834C5.95834 15.29 7.28834 17.53 9.30834 19.07L12.6983 21.66C13.2983 22.11 14.1283 22.11 14.7283 21.66L18.1183 19.07C20.5883 17.17 22.0483 14.24 22.0483 11.12V5.98C22.0483 5.27 21.5983 4.64 20.9283 4.41ZM20.3783 11.12C20.3783 13.72 19.1683 16.16 17.1083 17.74L13.7083 20.33L10.3183 17.74C8.71834 16.52 7.62834 14.77 7.22834 12.83H14.6683L12.3583 14.68C11.9983 14.97 11.9383 15.49 12.2283 15.85C12.5183 16.21 13.0383 16.27 13.3983 15.98L16.7483 13.3C17.5883 12.63 17.5883 11.37 16.7483 10.7L13.3983 8.02C13.0383 7.73 12.5183 7.79 12.2283 8.15C11.9383 8.51 11.9983 9.03 12.3583 9.32L14.6683 11.17H7.04834V5.98L13.7083 3.67L20.3783 5.98V11.12Z" fill="#343842"/>
</svg>
