<svg width="20" height="20" viewBox="0 0 20 20" fill="none" xmlns="http://www.w3.org/2000/svg">
<g id="Group 75371">
<path id="Rectangle 17730 (Stroke)" fill-rule="evenodd" clip-rule="evenodd" d="M3.33203 3.98504C3.33203 3.27534 3.78148 2.64351 4.45191 2.41072L11.118 0.0961088C11.4721 -0.0268279 11.8572 -0.0268279 12.2113 0.0961088L18.8774 2.41072C19.5478 2.64351 19.9972 3.27534 19.9972 3.98504V9.12307C19.9972 12.2393 18.5444 15.1774 16.068 17.0691L12.6763 19.66C12.079 20.1162 11.2503 20.1162 10.653 19.66L7.26128 17.0691C4.7849 15.1774 3.33203 12.2393 3.33203 9.12307V3.98504ZM11.6646 1.67043L4.99855 3.98504V9.12307C4.99855 11.7199 6.20927 14.1683 8.27293 15.7447L11.6646 18.3356L15.0563 15.7447C17.12 14.1683 18.3307 11.7199 18.3307 9.12307V3.98504L11.6646 1.67043Z" fill="#343842"/>
<g id="Group 75326">
<g id="Group 75370">
<path id="Vector 20 (Stroke)" fill-rule="evenodd" clip-rule="evenodd" d="M-7.28459e-08 10.0012C-3.26142e-08 9.54103 0.373063 9.16797 0.83326 9.16797L14.1654 9.16797C14.6256 9.16797 14.9987 9.54103 14.9987 10.0012C14.9987 10.4614 14.6256 10.8345 14.1654 10.8345L0.83326 10.8345C0.373063 10.8345 -1.13078e-07 10.4614 -7.28459e-08 10.0012Z" fill="#343842"/>
<path id="Vector 21 (Stroke)" fill-rule="evenodd" clip-rule="evenodd" d="M10.1826 6.14869C10.4701 5.78934 10.9945 5.73108 11.3538 6.01856L14.7068 8.70093C15.5407 9.36808 15.5407 10.6365 14.7068 11.3036L11.3538 13.986C10.9945 14.2735 10.4701 14.2152 10.1826 13.8558C9.89514 13.4965 9.9534 12.9721 10.3128 12.6846L13.6657 10.0023L10.3128 7.3199C9.9534 7.03241 9.89514 6.50805 10.1826 6.14869Z" fill="#343842"/>
</g>
</g>
</g>
</svg>
