<svg width="24" height="24" viewBox="0 0 24 24" fill="none" xmlns="http://www.w3.org/2000/svg">
<path fill-rule="evenodd" clip-rule="evenodd" d="M10.7002 7.88136C11.092 8.10755 11.2262 8.60851 11 9.00029L9.13007 12.0146L8.17179 13.6528C7.94338 14.0433 7.44167 14.1747 7.05118 13.9462C6.66069 13.7178 6.5293 13.2161 6.75772 12.8256L7.7148 11.1894L9.58125 8.18118C9.80745 7.7894 10.3084 7.65517 10.7002 7.88136ZM14.8697 9.64493C15.2714 9.43692 15.7657 9.59395 15.9737 9.99567L18.3507 14.8963C18.5588 15.298 18.4017 15.7923 18 16.0003C17.5983 16.2083 17.104 16.0513 16.896 15.6495L14.519 10.749C14.3109 10.3472 14.468 9.85295 14.8697 9.64493ZM7.18089 17.7443C7.18089 17.292 7.54762 16.9252 8 16.9252L13.7433 16.9252C14.1957 16.9252 14.5624 17.292 14.5624 17.7443C14.5624 18.1967 14.1957 18.5635 13.7433 18.5635L8 18.5635C7.54762 18.5635 7.18089 18.1967 7.18089 17.7443Z" fill="#171A21"/>
<path d="M13.608 6.2769C13.608 7.18167 12.8745 7.91513 11.9698 7.91513C11.065 7.91513 10.3315 7.18167 10.3315 6.2769C10.3315 5.37213 11.065 4.63867 11.9698 4.63867C12.8745 4.63867 13.608 5.37213 13.608 6.2769Z" fill="white"/>
<path fill-rule="evenodd" clip-rule="evenodd" d="M15.2463 6.27646C15.2463 8.08599 13.7794 9.55291 11.9698 9.55291C10.1603 9.55291 8.69336 8.08599 8.69336 6.27646C8.69336 4.46692 10.1603 3 11.9698 3C13.7794 3 15.2463 4.46692 15.2463 6.27646ZM11.9698 7.91468C12.8746 7.91468 13.608 7.18122 13.608 6.27646C13.608 5.37169 12.8746 4.63823 11.9698 4.63823C11.065 4.63823 10.3316 5.37169 10.3316 6.27646C10.3316 7.18122 11.065 7.91468 11.9698 7.91468Z" fill="#171A21"/>
<path d="M6.91464 17.8023C6.91464 18.7071 6.18118 19.4405 5.27641 19.4405C4.37164 19.4405 3.63818 18.7071 3.63818 17.8023C3.63818 16.8975 4.37164 16.1641 5.27641 16.1641C6.18118 16.1641 6.91464 16.8975 6.91464 17.8023Z" fill="white"/>
<path fill-rule="evenodd" clip-rule="evenodd" d="M8.55291 17.8018C8.55291 19.6114 7.08599 21.0783 5.27646 21.0783C3.46692 21.0783 2 19.6114 2 17.8018C2 15.9923 3.46692 14.5254 5.27646 14.5254C7.08599 14.5254 8.55291 15.9923 8.55291 17.8018ZM5.27646 19.4401C6.18122 19.4401 6.91468 18.7066 6.91468 17.8018C6.91468 16.8971 6.18122 16.1636 5.27646 16.1636C4.37169 16.1636 3.63823 16.8971 3.63823 17.8018C3.63823 18.7066 4.37169 19.4401 5.27646 19.4401Z" fill="#171A21"/>
<path d="M20.3617 17.5777C20.3617 18.4824 19.6282 19.2159 18.7234 19.2159C17.8187 19.2159 17.0852 18.4824 17.0852 17.5777C17.0852 16.6729 17.8187 15.9395 18.7234 15.9395C19.6282 15.9395 20.3617 16.6729 20.3617 17.5777Z" fill="white"/>
<path fill-rule="evenodd" clip-rule="evenodd" d="M22.0002 17.5792C22.0002 19.3887 20.5333 20.8556 18.7237 20.8556C16.9142 20.8556 15.4473 19.3887 15.4473 17.5792C15.4473 15.7697 16.9142 14.3027 18.7237 14.3027C20.5333 14.3027 22.0002 15.7697 22.0002 17.5792ZM18.7237 19.2174C19.6285 19.2174 20.3619 18.484 20.3619 17.5792C20.3619 16.6744 19.6285 15.941 18.7237 15.941C17.819 15.941 17.0855 16.6744 17.0855 17.5792C17.0855 18.484 17.819 19.2174 18.7237 19.2174Z" fill="#171A21"/>
</svg>
