<svg width="24" height="24" viewBox="0 0 24 24" fill="none" xmlns="http://www.w3.org/2000/svg">
<path fill-rule="evenodd" clip-rule="evenodd" d="M20.4076 11.9992C20.4076 16.6425 16.6434 20.4066 12.0002 20.4066C7.35689 20.4066 3.59277 16.6425 3.59277 11.9992C3.59277 7.35591 7.35689 3.5918 12.0002 3.5918C16.6434 3.5918 20.4076 7.35591 20.4076 11.9992ZM12.0002 18.7251C15.7148 18.7251 18.7261 15.7138 18.7261 11.9992C18.7261 8.28457 15.7148 5.27328 12.0002 5.27328C8.28555 5.27328 5.27425 8.28457 5.27425 11.9992C5.27425 15.7138 8.28555 18.7251 12.0002 18.7251Z" fill="#171A21"/>
<path fill-rule="evenodd" clip-rule="evenodd" d="M11.632 19.7365C9.8262 17.9307 9.8262 15.0029 11.632 13.1971C13.4378 11.3913 16.3656 11.3913 18.1714 13.1971L20.9025 15.9282L19.119 17.7117L16.388 14.9806C15.5671 14.1597 14.2363 14.1597 13.4155 14.9806C12.5947 15.8014 12.5947 17.1322 13.4155 17.953L16.1466 20.6841L14.3631 22.4676L11.632 19.7365Z" fill="#171A21"/>
<path fill-rule="evenodd" clip-rule="evenodd" d="M19.9552 18.5483L19.4443 18.0374L21.2278 16.2539L21.7387 16.7648L19.9552 18.5483Z" fill="#171A21"/>
<path fill-rule="evenodd" clip-rule="evenodd" d="M15.1994 23.3041L14.6884 22.7932L16.4719 21.0098L16.9828 21.5207L15.1994 23.3041Z" fill="#171A21"/>
<path fill-rule="evenodd" clip-rule="evenodd" d="M10.1458 8.3514C9.68143 8.3514 9.30501 8.72781 9.30501 9.19214C9.30501 9.65647 9.68143 10.0329 10.1458 10.0329C10.6101 10.0329 10.9865 9.65647 10.9865 9.19214C10.9865 8.72781 10.6101 8.3514 10.1458 8.3514ZM12.668 9.19214C12.668 10.5851 11.5387 11.7144 10.1458 11.7144C8.75277 11.7144 7.62354 10.5851 7.62354 9.19214C7.62354 7.79916 8.75277 6.66992 10.1458 6.66992C11.5387 6.66992 12.668 7.79916 12.668 9.19214Z" fill="#171A21"/>
</svg>
