<svg width="24" height="24" viewBox="0 0 24 24" fill="none" xmlns="http://www.w3.org/2000/svg">
<path fill-rule="evenodd" clip-rule="evenodd" d="M22 7.16602L22 18.8327C22 20.2134 20.8807 21.3327 19.5 21.3327L4.5 21.3327C3.11929 21.3327 2 20.2134 2 18.8327L2 7.16601C2 5.7853 3.11929 4.66601 4.5 4.66601L19.5 4.66602C20.8807 4.66602 22 5.7853 22 7.16602ZM20.3333 7.16602C20.3333 6.70578 19.9602 6.33268 19.5 6.33268L4.5 6.33268C4.03976 6.33268 3.66667 6.70578 3.66667 7.16601L3.66667 18.8327C3.66667 19.2929 4.03976 19.666 4.5 19.666L19.5 19.666C19.9602 19.666 20.3333 19.2929 20.3333 18.8327L20.3333 7.16602Z" fill="#343842"/>
<path d="M12.8332 17.166C13.2934 17.166 13.6665 16.7929 13.6665 16.3327L13.6665 14.666C13.6665 14.2058 13.2934 13.8327 12.8332 13.8327L11.1665 13.8327C10.7063 13.8327 10.3332 14.2058 10.3332 14.666L10.3332 16.3327C10.3332 16.7929 10.7063 17.166 11.1665 17.166L12.8332 17.166Z" fill="#343842"/>
<path fill-rule="evenodd" clip-rule="evenodd" d="M6.16683 3C6.62707 3 7.00016 3.3731 7.00016 3.83333L7.00016 7.33333C7.00016 7.79357 6.62707 8.16667 6.16683 8.16667C5.70659 8.16667 5.3335 7.79357 5.3335 7.33333L5.3335 3.83333C5.3335 3.3731 5.70659 3 6.16683 3Z" fill="#343842"/>
<path fill-rule="evenodd" clip-rule="evenodd" d="M17.8333 3C18.2936 3 18.6667 3.3731 18.6667 3.83333L18.6667 7.33333C18.6667 7.79357 18.2936 8.16667 17.8333 8.16667C17.3731 8.16667 17 7.79357 17 7.33333L17 3.83333C17 3.3731 17.3731 3 17.8333 3Z" fill="#343842"/>
<path fill-rule="evenodd" clip-rule="evenodd" d="M2 10.4993C2 10.0391 2.3731 9.66602 2.83333 9.66602H21.1667C21.6269 9.66602 22 10.0391 22 10.4993C22 10.9596 21.6269 11.3327 21.1667 11.3327H2.83333C2.3731 11.3327 2 10.9596 2 10.4993Z" fill="#343842"/>
</svg>
